<svg width="20" height="19" viewBox="0 0 20 19" fill="none" xmlns="http://www.w3.org/2000/svg">
<g clip-path="url(#clip0_329_370)">
<path d="M9.76 0C7.82966 0 5.94266 0.550421 4.33764 1.58166C2.73261 2.61289 1.48165 4.07863 0.74294 5.79351C0.00422886 7.5084 -0.189052 9.39541 0.18754 11.2159C0.564132 13.0364 1.49368 14.7087 2.85864 16.0212C4.2236 17.3337 5.96267 18.2275 7.85592 18.5897C9.74918 18.9518 11.7116 18.7659 13.495 18.0556C15.2784 17.3453 16.8027 16.1424 17.8751 14.599C18.9476 13.0557 19.52 11.2412 19.52 9.385C19.5173 6.89675 18.4881 4.51116 16.6583 2.7517C14.8286 0.992245 12.3477 0.00262764 9.76 0ZM9.76 17.3262C8.12663 17.3262 6.52994 16.8604 5.17185 15.9878C3.81375 15.1152 2.75524 13.875 2.13018 12.4239C1.50512 10.9729 1.34157 9.37619 1.66023 7.83576C1.97888 6.29532 2.76542 4.88035 3.92039 3.76976C5.07536 2.65917 6.54687 1.90284 8.14886 1.59643C9.75084 1.29002 11.4113 1.44728 12.9204 2.04833C14.4294 2.64938 15.7192 3.66721 16.6267 4.97313C17.5341 6.27905 18.0185 7.81439 18.0185 9.385C18.016 11.4904 17.1451 13.5089 15.5969 14.9976C14.0486 16.4863 11.9495 17.3238 9.76 17.3262ZM15.7662 9.385C15.7662 9.57646 15.6871 9.76009 15.5463 9.89548C15.4055 10.0309 15.2145 10.1069 15.0154 10.1069H9.76C9.56089 10.1069 9.36993 10.0309 9.22913 9.89548C9.08833 9.76009 9.00923 9.57646 9.00923 9.385V4.33154C9.00923 4.14007 9.08833 3.95645 9.22913 3.82106C9.36993 3.68567 9.56089 3.60961 9.76 3.60961C9.95912 3.60961 10.1501 3.68567 10.2909 3.82106C10.4317 3.95645 10.5108 4.14007 10.5108 4.33154V8.66308H15.0154C15.2145 8.66308 15.4055 8.73913 15.5463 8.87452C15.6871 9.00991 15.7662 9.19353 15.7662 9.385Z" fill="#1D283A"/>
</g>
<defs>
<clipPath id="clip0_329_370">
<rect width="19.2" height="18.77" fill="white"/>
</clipPath>
</defs>
</svg>
