<svg width="20" height="19" viewBox="0 0 20 19" fill="none" xmlns="http://www.w3.org/2000/svg">
<g clip-path="url(#clip0_329_235)">
<path d="M17.8933 1.44385H15.4533V0.721923C15.4533 0.530457 15.3676 0.346833 15.2151 0.211446C15.0626 0.0760595 14.8557 0 14.64 0C14.4243 0 14.2174 0.0760595 14.0649 0.211446C13.9124 0.346833 13.8267 0.530457 13.8267 0.721923V1.44385H5.69333V0.721923C5.69333 0.530457 5.60764 0.346833 5.45511 0.211446C5.30258 0.0760595 5.09571 0 4.88 0C4.66429 0 4.45742 0.0760595 4.30489 0.211446C4.15236 0.346833 4.06667 0.530457 4.06667 0.721923V1.44385H1.62667C1.19525 1.44385 0.781499 1.59597 0.47644 1.86674C0.17138 2.13751 0 2.50476 0 2.88769V17.3262C0 17.7091 0.17138 18.0763 0.47644 18.3471C0.781499 18.6179 1.19525 18.77 1.62667 18.77H17.8933C18.3248 18.77 18.7385 18.6179 19.0436 18.3471C19.3486 18.0763 19.52 17.7091 19.52 17.3262V2.88769C19.52 2.50476 19.3486 2.13751 19.0436 1.86674C18.7385 1.59597 18.3248 1.44385 17.8933 1.44385ZM4.06667 2.88769V3.60962C4.06667 3.80108 4.15236 3.98471 4.30489 4.12009C4.45742 4.25548 4.66429 4.33154 4.88 4.33154C5.09571 4.33154 5.30258 4.25548 5.45511 4.12009C5.60764 3.98471 5.69333 3.80108 5.69333 3.60962V2.88769H13.8267V3.60962C13.8267 3.80108 13.9124 3.98471 14.0649 4.12009C14.2174 4.25548 14.4243 4.33154 14.64 4.33154C14.8557 4.33154 15.0626 4.25548 15.2151 4.12009C15.3676 3.98471 15.4533 3.80108 15.4533 3.60962V2.88769H17.8933V5.77538H1.62667V2.88769H4.06667ZM17.8933 17.3262H1.62667V7.21923H17.8933V17.3262Z" fill="white"/>
</g>
<defs>
<clipPath id="clip0_329_235">
<rect width="19.2" height="18.77" fill="white"/>
</clipPath>
</defs>
</svg>
