<svg width="20" height="19" viewBox="0 0 20 19" fill="none" xmlns="http://www.w3.org/2000/svg">
<path d="M12.2001 1.56396H4.88008C4.44867 1.56396 4.03492 1.72876 3.72986 2.0221C3.4248 2.31544 3.25342 2.71329 3.25342 3.12813V15.6415C3.25342 16.0563 3.4248 16.4542 3.72986 16.7475C4.03492 17.0408 4.44867 17.2056 4.88008 17.2056H14.6401C15.0715 17.2056 15.4853 17.0408 15.7903 16.7475C16.0954 16.4542 16.2668 16.0563 16.2668 15.6415V5.47438L12.2001 1.56396Z" stroke="#2E80FA" stroke-width="1.33333" stroke-linecap="round" stroke-linejoin="round"/>
<path d="M11.3867 1.56396V4.6923C11.3867 5.10714 11.5581 5.50499 11.8632 5.79833C12.1682 6.09167 12.582 6.25646 13.0134 6.25646H16.2667" stroke="#2E80FA" stroke-width="1.33333" stroke-linecap="round" stroke-linejoin="round"/>
<path d="M8.1335 7.03857H6.50684" stroke="#2E80FA" stroke-width="1.33333" stroke-linecap="round" stroke-linejoin="round"/>
<path d="M13.0135 10.167H6.50684" stroke="#2E80FA" stroke-width="1.33333" stroke-linecap="round" stroke-linejoin="round"/>
<path d="M12.6068 13.2954H6.50684" stroke="#2E80FA" stroke-width="1.33333" stroke-linecap="round" stroke-linejoin="round"/>
</svg>
